<?xml version='1.0' encoding='utf-8'?>
<!DOCTYPE svg PUBLIC '-//W3C//DTD SVG 1.1//EN' 'http://www.w3.org/Graphics/SVG/1.1/DTD/svg11.dtd'>
<svg version="1.1" xmlns="http://www.w3.org/2000/svg" viewBox="0 0 512 512" xmlns:xlink="http://www.w3.org/1999/xlink" enable-background="new 0 0 512 512">
  <g>
    <path d="m486.4,25.6l0,0c-327.2-72.7-533.5,133.6-460.8,460.8h-2.13163e-14c327.2,72.7 533.5-133.6 460.8-460.8zm-60.7,32.3l-85.2,85.2-112-1.8c-11,0.1-20.2,8.7-20.4,19.7-0.2,11.1 8.7,20.2 19.7,20.4l73.1,1.2-84.3,84.3-111.9-1.8c-0.1,0-0.2,0-0.3,0-10.9,0-19.9,8.8-20,19.7-0.2,11.1 8.7,20.2 19.7,20.4l73.1,1.2-119.3,119.3c-39.2-247.6 120.2-407 367.8-367.8zm-339.4,396.2l119.4-119.4 1.2,73.1c0.2,11 9.1,19.7 20,19.7 0.1,0 0.2,0 0.3,0 11.1-0.2 19.9-9.3 19.7-20.4l-1.8-111.9 84.2-84.2 1.2,73c0.2,11 9.1,19.7 20,19.7 0.1,0 0.2,0 0.3,0 11.1-0.2 19.9-9.3 19.7-20.4l-1.8-111.8 85.2-85.2c39.4,247.6-120,407-367.6,367.8z"/>
  </g>
</svg>
